ffmpeg version git-2026-04-19-de18feb Copyright (c) 2000-2026 the FFmpeg developers
  built with gcc 9 (Ubuntu 9.4.0-1ubuntu1~20.04.2)
  configuration: --enable-shared --enable-gpl --enable-libx264
  libavutil      60. 30.100 / 60. 30.100
  libavcodec     62. 30.100 / 62. 30.100
  libavformat    62. 13.102 / 62. 13.102
  libavdevice    62.  4.100 / 62.  4.100
  libavfilter    11. 15.101 / 11. 15.101
  libswscale      9.  7.100 /  9.  7.100
  libswresample   6.  4.100 /  6.  4.100
[in#0/x11grab @ 0x563fcf070c40] Stream #0: not enough frames to estimate rate; consider increasing probesize
Input #0, x11grab, from ':0.0+0,0':
  Duration: N/A, start: 1777358141.734509, bitrate: 3678192 kb/s
  Stream #0:0: Video: rawvideo (BGR[0] / 0x524742), bgr0, 2870x1602, 3678192 kb/s, 25 fps, 1000k tbr, 1000k tbn, start 1777358141.734509
Stream mapping:
  Stream #0:0 -> #0:0 (rawvideo (native) -> h264 (libx264))
[libx264 @ 0x563fcf07ef00] using cpu capabilities: MMX2 SSE2Fast SSSE3 SSE4.2 AVX FMA3 BMI2 AVX2
[libx264 @ 0x563fcf07ef00] profile High, level 5.0
[libx264 @ 0x563fcf07ef00] 264 - core 155 r2917 0a84d98 - H.264/MPEG-4 AVC codec - Copyleft 2003-2018 - http://www.videolan.org/x264.html - options: cabac=1 ref=1 deblock=1:0:0 analyse=0x3:0x113 me=hex subme=2 psy=1 psy_rd=1.00:0.00 mixed_ref=0 me_range=16 chroma_me=1 trellis=0 8x8dct=1 cqm=0 deadzone=21,11 fast_pskip=1 chroma_qp_offset=0 threads=6 lookahead_threads=2 sliced_threads=0 nr=0 decimate=1 interlaced=0 bluray_compat=0 constrained_intra=0 bframes=3 b_pyramid=2 b_adapt=1 b_bias=0 direct=1 weightb=1 open_gop=0 weightp=1 keyint=250 keyint_min=25 scenecut=40 intra_refresh=0 rc_lookahead=10 rc=crf mbtree=1 crf=23.0 qcomp=0.60 qpmin=0 qpmax=69 qpstep=4 ip_ratio=1.40 aq=1:1.00
Output #0, matroska, to '/home/lmy/catkin_ws/recordings_tmp/tennis_pickup_screen_20260427_233423_screen.mkv':
  Metadata:
    encoder         : Lavf62.13.102
  Stream #0:0: Video: h264 (H264 / 0x34363248), yuv420p(tv, progressive), 2870x1602, q=2-31, 25 fps, 1k tbn
    Metadata:
      encoder         : Lavc62.30.100 libx264
    Side data:
      CPB properties: bitrate max/min/avg: 0/0/0 buffer size: 0 vbv_delay: N/A
frame=    0 fps=0.0 q=0.0 size=       0KiB time=N/A bitrate=N/A speed=N/A elapsed=0:00:00.50    frame=    5 fps=5.0 q=28.0 size=       1KiB time=00:00:00.12 bitrate=  39.6kbits/s speed=0.12x elapsed=0:00:01.00    frame=   18 fps= 12 q=28.0 size=       1KiB time=00:00:00.64 bitrate=   7.4kbits/s speed=0.426x elapsed=0:00:01.50    frame=   31 fps= 15 q=28.0 size=       1KiB time=00:00:01.16 bitrate=   4.1kbits/s speed=0.579x elapsed=0:00:02.00    frame=   44 fps= 18 q=28.0 size=       1KiB time=00:00:01.72 bitrate=   2.8kbits/s speed=0.687x elapsed=0:00:02.50    frame=   56 fps= 19 q=28.0 size=       1KiB time=00:00:02.20 bitrate=   2.2kbits/s speed=0.733x elapsed=0:00:03.00    frame=   69 fps= 20 q=28.0 size=       1KiB time=00:00:02.68 bitrate=   1.8kbits/s speed=0.765x elapsed=0:00:03.50    frame=   81 fps= 20 q=28.0 size=       1KiB time=00:00:03.16 bitrate=   1.5kbits/s speed=0.789x elapsed=0:00:04.00    frame=   94 fps= 21 q=28.0 size=       1KiB time=00:00:03.68 bitrate=   1.3kbits/s speed=0.817x elapsed=0:00:04.50    frame=  106 fps= 21 q=28.0 size=       1KiB time=00:00:04.16 bitrate=   1.1kbits/s speed=0.831x elapsed=0:00:05.00    frame=  119 fps= 22 q=28.0 size=       1KiB time=00:00:04.68 bitrate=   1.0kbits/s speed=0.85x elapsed=0:00:05.50    frame=  131 fps= 22 q=28.0 size=     211KiB time=00:00:05.16 bitrate= 335.8kbits/s speed=0.859x elapsed=0:00:06.00    frame=  144 fps= 22 q=28.0 size=     211KiB time=00:00:05.68 bitrate= 305.0kbits/s speed=0.873x elapsed=0:00:06.50    frame=  156 fps= 22 q=28.0 size=     211KiB time=00:00:06.16 bitrate= 281.3kbits/s speed=0.879x elapsed=0:00:07.00    frame=  169 fps= 23 q=28.0 size=     211KiB time=00:00:06.68 bitrate= 259.4kbits/s speed=0.89x elapsed=0:00:07.50    frame=  181 fps= 23 q=28.0 size=     211KiB time=00:00:07.16 bitrate= 242.0kbits/s speed=0.894x elapsed=0:00:08.00    frame=  194 fps= 23 q=28.0 size=     211KiB time=00:00:07.68 bitrate= 225.6kbits/s speed=0.903x elapsed=0:00:08.50    frame=  206 fps= 23 q=28.0 size=     211KiB time=00:00:08.20 bitrate= 211.3kbits/s speed=0.91x elapsed=0:00:09.00    frame=  219 fps= 23 q=28.0 size=     211KiB time=00:00:08.72 bitrate= 198.7kbits/s speed=0.917x elapsed=0:00:09.50    frame=  231 fps= 23 q=28.0 size=     211KiB time=00:00:09.16 bitrate= 189.1kbits/s speed=0.915x elapsed=0:00:10.01    frame=  244 fps= 23 q=28.0 size=     211KiB time=00:00:09.68 bitrate= 179.0kbits/s speed=0.921x elapsed=0:00:10.51    frame=  256 fps= 23 q=28.0 size=     256KiB time=00:00:10.16 bitrate= 206.4kbits/s speed=0.923x elapsed=0:00:11.01    frame=  269 fps= 23 q=28.0 size=     256KiB time=00:00:10.72 bitrate= 195.6kbits/s speed=0.931x elapsed=0:00:11.51    frame=  281 fps= 23 q=28.0 size=     256KiB time=00:00:11.20 bitrate= 187.2kbits/s speed=0.932x elapsed=0:00:12.01    frame=  294 fps= 23 q=28.0 size=     256KiB time=00:00:11.72 bitrate= 178.9kbits/s speed=0.937x elapsed=0:00:12.51    frame=  306 fps= 24 q=28.0 size=     256KiB time=00:00:12.20 bitrate= 171.9kbits/s speed=0.938x elapsed=0:00:13.01    frame=  319 fps= 24 q=28.0 size=     256KiB time=00:00:12.72 bitrate= 164.9kbits/s speed=0.941x elapsed=0:00:13.51    frame=  332 fps= 24 q=28.0 size=     256KiB time=00:00:13.24 bitrate= 158.4kbits/s speed=0.945x elapsed=0:00:14.01    frame=  344 fps= 24 q=28.0 size=     256KiB time=00:00:13.72 bitrate= 152.9kbits/s speed=0.945x elapsed=0:00:14.51    frame=  356 fps= 24 q=28.0 size=     256KiB time=00:00:14.20 bitrate= 147.7kbits/s speed=0.946x elapsed=0:00:15.01    frame=  369 fps= 24 q=28.0 size=     256KiB time=00:00:14.68 bitrate= 142.9kbits/s speed=0.946x elapsed=0:00:15.51    frame=  382 fps= 24 q=28.0 size=     512KiB time=00:00:15.24 bitrate= 275.2kbits/s speed=0.952x elapsed=0:00:16.01    frame=  394 fps= 24 q=28.0 size=     512KiB time=00:00:15.68 bitrate= 267.5kbits/s speed=0.949x elapsed=0:00:16.51    frame=  407 fps= 24 q=28.0 size=     512KiB time=00:00:16.20 bitrate= 258.9kbits/s speed=0.952x elapsed=0:00:17.01    frame=  419 fps= 24 q=28.0 size=     512KiB time=00:00:16.68 bitrate= 251.5kbits/s speed=0.952x elapsed=0:00:17.51    frame=  431 fps= 24 q=28.0 size=     512KiB time=00:00:17.16 bitrate= 244.4kbits/s speed=0.952x elapsed=0:00:18.01    frame=  444 fps= 24 q=28.0 size=     512KiB time=00:00:17.68 bitrate= 237.2kbits/s speed=0.955x elapsed=0:00:18.51    frame=  457 fps= 24 q=28.0 size=     512KiB time=00:00:18.20 bitrate= 230.5kbits/s speed=0.957x elapsed=0:00:19.01    frame=  469 fps= 24 q=28.0 size=     512KiB time=00:00:18.72 bitrate= 224.1kbits/s speed=0.959x elapsed=0:00:19.51    frame=  482 fps= 24 q=28.0 size=     512KiB time=00:00:19.24 bitrate= 218.0kbits/s speed=0.961x elapsed=0:00:20.01    frame=  494 fps= 24 q=28.0 size=     512KiB time=00:00:19.72 bitrate= 212.7kbits/s speed=0.961x elapsed=0:00:20.51    frame=  507 fps= 24 q=28.0 size=     512KiB time=00:00:20.20 bitrate= 207.6kbits/s speed=0.961x elapsed=0:00:21.01    frame=  519 fps= 24 q=28.0 size=     512KiB time=00:00:20.68 bitrate= 202.8kbits/s speed=0.961x elapsed=0:00:21.51    frame=  532 fps= 24 q=28.0 size=     512KiB time=00:00:21.20 bitrate= 197.8kbits/s speed=0.963x elapsed=0:00:22.01    frame=  544 fps= 24 q=28.0 size=     512KiB time=00:00:21.72 bitrate= 193.1kbits/s speed=0.965x elapsed=0:00:22.51    frame=  557 fps= 24 q=28.0 size=     512KiB time=00:00:22.24 bitrate= 188.6kbits/s speed=0.966x elapsed=0:00:23.01    frame=  569 fps= 24 q=28.0 size=     512KiB time=00:00:22.72 bitrate= 184.6kbits/s speed=0.966x elapsed=0:00:23.51    frame=  582 fps= 24 q=28.0 size=     512KiB time=00:00:23.20 bitrate= 180.8kbits/s speed=0.966x elapsed=0:00:24.02    frame=  594 fps= 24 q=28.0 size=     512KiB time=00:00:23.68 bitrate= 177.1kbits/s speed=0.966x elapsed=0:00:24.52    frame=  607 fps= 24 q=28.0 size=     512KiB time=00:00:24.20 bitrate= 173.3kbits/s speed=0.967x elapsed=0:00:25.02    frame=  619 fps= 24 q=28.0 size=     512KiB time=00:00:24.68 bitrate= 169.9kbits/s speed=0.967x elapsed=0:00:25.52    frame=  632 fps= 24 q=28.0 size=     768KiB time=00:00:25.20 bitrate= 249.7kbits/s speed=0.968x elapsed=0:00:26.02    frame=  644 fps= 24 q=28.0 size=     768KiB time=00:00:25.68 bitrate= 245.0kbits/s speed=0.968x elapsed=0:00:26.52    frame=  657 fps= 24 q=28.0 size=     768KiB time=00:00:26.20 bitrate= 240.1kbits/s speed=0.97x elapsed=0:00:27.02    frame=  669 fps= 24 q=28.0 size=     768KiB time=00:00:26.72 bitrate= 235.5kbits/s speed=0.971x elapsed=0:00:27.52    frame=  682 fps= 24 q=28.0 size=     768KiB time=00:00:27.20 bitrate= 231.3kbits/s speed=0.971x elapsed=0:00:28.02    frame=  694 fps= 24 q=28.0 size=     768KiB time=00:00:27.72 bitrate= 227.0kbits/s speed=0.972x elapsed=0:00:28.52    frame=  707 fps= 24 q=28.0 size=     768KiB time=00:00:28.24 bitrate= 222.8kbits/s speed=0.973x elapsed=0:00:29.02    frame=  719 fps= 24 q=28.0 size=     768KiB time=00:00:28.68 bitrate= 219.4kbits/s speed=0.971x elapsed=0:00:29.52    frame=  732 fps= 24 q=28.0 size=     768KiB time=00:00:29.24 bitrate= 215.2kbits/s speed=0.974x elapsed=0:00:30.02    frame=  744 fps= 24 q=28.0 size=     768KiB time=00:00:29.68 bitrate= 212.0kbits/s speed=0.972x elapsed=0:00:30.52    frame=  757 fps= 24 q=28.0 size=    1024KiB time=00:00:30.20 bitrate= 277.8kbits/s speed=0.973x elapsed=0:00:31.02    frame=  769 fps= 24 q=28.0 size=    1024KiB time=00:00:30.68 bitrate= 273.4kbits/s speed=0.973x elapsed=0:00:31.52    frame=  782 fps= 24 q=28.0 size=    1024KiB time=00:00:31.24 bitrate= 268.5kbits/s speed=0.975x elapsed=0:00:32.02    frame=  794 fps= 24 q=28.0 size=    1024KiB time=00:00:31.68 bitrate= 264.8kbits/s speed=0.974x elapsed=0:00:32.52    frame=  807 fps= 24 q=28.0 size=    1024KiB time=00:00:32.20 bitrate= 260.5kbits/s speed=0.975x elapsed=0:00:33.02    frame=  819 fps= 24 q=28.0 size=    1024KiB time=00:00:32.68 bitrate= 256.7kbits/s speed=0.975x elapsed=0:00:33.52    frame=  832 fps= 24 q=28.0 size=    1024KiB time=00:00:33.20 bitrate= 252.7kbits/s speed=0.976x elapsed=0:00:34.03    frame=  845 fps= 24 q=28.0 size=    1024KiB time=00:00:33.72 bitrate= 248.8kbits/s speed=0.976x elapsed=0:00:34.53    frame=  857 fps= 24 q=28.0 size=    1024KiB time=00:00:34.20 bitrate= 245.3kbits/s speed=0.976x elapsed=0:00:35.03    frame=  870 fps= 24 q=28.0 size=    1024KiB time=00:00:34.72 bitrate= 241.6kbits/s speed=0.977x elapsed=0:00:35.53    frame=  882 fps= 24 q=28.0 size=    1280KiB time=00:00:35.24 bitrate= 297.6kbits/s speed=0.978x elapsed=0:00:36.03    frame=  894 fps= 24 q=28.0 size=    1280KiB time=00:00:35.68 bitrate= 293.9kbits/s speed=0.977x elapsed=0:00:36.53    frame=  907 fps= 24 q=28.0 size=    1280KiB time=00:00:36.24 bitrate= 289.3kbits/s speed=0.979x elapsed=0:00:37.03    frame=  919 fps= 24 q=28.0 size=    1280KiB time=00:00:36.68 bitrate= 285.9kbits/s speed=0.977x elapsed=0:00:37.53    frame=  932 fps= 25 q=28.0 size=    1280KiB time=00:00:37.20 bitrate= 281.9kbits/s speed=0.978x elapsed=0:00:38.03    frame=  944 fps= 24 q=28.0 size=    1280KiB time=00:00:37.68 bitrate= 278.3kbits/s speed=0.978x elapsed=0:00:38.53    frame=  957 fps= 25 q=28.0 size=    1280KiB time=00:00:38.24 bitrate= 274.2kbits/s speed=0.98x elapsed=0:00:39.03    frame=  969 fps= 25 q=28.0 size=    1280KiB time=00:00:38.76 bitrate= 270.5kbits/s speed=0.98x elapsed=0:00:39.53    frame=  982 fps= 25 q=28.0 size=    1280KiB time=00:00:39.20 bitrate= 267.5kbits/s speed=0.979x elapsed=0:00:40.03    frame=  994 fps= 25 q=28.0 size=    1280KiB time=00:00:39.68 bitrate= 264.3kbits/s speed=0.979x elapsed=0:00:40.53    frame= 1007 fps= 25 q=28.0 size=    1280KiB time=00:00:40.20 bitrate= 260.8kbits/s speed=0.98x elapsed=0:00:41.03    frame= 1020 fps= 25 q=28.0 size=    1280KiB time=00:00:40.76 bitrate= 257.3kbits/s speed=0.981x elapsed=0:00:41.53    frame= 1032 fps= 25 q=28.0 size=    1280KiB time=00:00:41.20 bitrate= 254.5kbits/s speed=0.98x elapsed=0:00:42.03    frame= 1044 fps= 25 q=28.0 size=    1280KiB time=00:00:41.72 bitrate= 251.3kbits/s speed=0.981x elapsed=0:00:42.53    frame= 1057 fps= 25 q=28.0 size=    1280KiB time=00:00:42.20 bitrate= 248.5kbits/s speed=0.981x elapsed=0:00:43.03    frame= 1069 fps= 25 q=28.0 size=    1280KiB time=00:00:42.72 bitrate= 245.5kbits/s speed=0.981x elapsed=0:00:43.53    frame= 1082 fps= 25 q=28.0 size=    1280KiB time=00:00:43.20 bitrate= 242.7kbits/s speed=0.981x elapsed=0:00:44.03    frame= 1095 fps= 25 q=28.0 size=    1280KiB time=00:00:43.72 bitrate= 239.8kbits/s speed=0.982x elapsed=0:00:44.53    frame= 1107 fps= 25 q=28.0 size=    1280KiB time=00:00:44.20 bitrate= 237.2kbits/s speed=0.981x elapsed=0:00:45.03    frame= 1120 fps= 25 q=28.0 size=    1280KiB time=00:00:44.72 bitrate= 234.5kbits/s speed=0.982x elapsed=0:00:45.53    frame= 1132 fps= 25 q=28.0 size=    1536KiB time=00:00:45.20 bitrate= 278.4kbits/s speed=0.982x elapsed=0:00:46.03    frame= 1145 fps= 25 q=28.0 size=    1536KiB time=00:00:45.76 bitrate= 275.0kbits/s speed=0.983x elapsed=0:00:46.53    frame= 1157 fps= 25 q=28.0 size=    1536KiB time=00:00:46.20 bitrate= 272.4kbits/s speed=0.982x elapsed=0:00:47.03    frame= 1170 fps= 25 q=28.0 size=    1536KiB time=00:00:46.72 bitrate= 269.3kbits/s speed=0.983x elapsed=0:00:47.53    frame= 1182 fps= 25 q=28.0 size=    1536KiB time=00:00:47.24 bitrate= 266.4kbits/s speed=0.983x elapsed=0:00:48.03    frame= 1195 fps= 25 q=28.0 size=    1536KiB time=00:00:47.72 bitrate= 263.7kbits/s speed=0.983x elapsed=0:00:48.54    frame= 1207 fps= 25 q=28.0 size=    1536KiB time=00:00:48.20 bitrate= 261.1kbits/s speed=0.983x elapsed=0:00:49.04    frame= 1220 fps= 25 q=28.0 size=    1536KiB time=00:00:48.76 bitrate= 258.1kbits/s speed=0.984x elapsed=0:00:49.54    frame= 1232 fps= 25 q=28.0 size=    1536KiB time=00:00:49.24 bitrate= 255.5kbits/s speed=0.984x elapsed=0:00:50.04    frame= 1245 fps= 25 q=28.0 size=    1536KiB time=00:00:49.72 bitrate= 253.1kbits/s speed=0.984x elapsed=0:00:50.54    frame= 1257 fps= 25 q=28.0 size=    1792KiB time=00:00:50.24 bitrate= 292.2kbits/s speed=0.984x elapsed=0:00:51.04    frame= 1270 fps= 25 q=28.0 size=    1792KiB time=00:00:50.72 bitrate= 289.4kbits/s speed=0.984x elapsed=0:00:51.54    frame= 1282 fps= 25 q=28.0 size=    1792KiB time=00:00:51.24 bitrate= 286.5kbits/s speed=0.984x elapsed=0:00:52.04    frame= 1295 fps= 25 q=28.0 size=    1792KiB time=00:00:51.72 bitrate= 283.8kbits/s speed=0.984x elapsed=0:00:52.54    frame= 1307 fps= 25 q=28.0 size=    1792KiB time=00:00:52.20 bitrate= 281.2kbits/s speed=0.984x elapsed=0:00:53.04    frame= 1320 fps= 25 q=28.0 size=    1792KiB time=00:00:52.72 bitrate= 278.5kbits/s speed=0.984x elapsed=0:00:53.55    frame= 1332 fps= 25 q=28.0 size=    1792KiB time=00:00:53.20 bitrate= 275.9kbits/s speed=0.984x elapsed=0:00:54.05    frame= 1345 fps= 25 q=28.0 size=    1792KiB time=00:00:53.72 bitrate= 273.3kbits/s speed=0.985x elapsed=0:00:54.55    frame= 1357 fps= 25 q=28.0 size=    1792KiB time=00:00:54.24 bitrate= 270.7kbits/s speed=0.985x elapsed=0:00:55.05    frame= 1370 fps= 25 q=28.0 size=    1792KiB time=00:00:54.72 bitrate= 268.3kbits/s speed=0.985x elapsed=0:00:55.55    frame= 1382 fps= 25 q=28.0 size=    2048KiB time=00:00:55.24 bitrate= 303.7kbits/s speed=0.985x elapsed=0:00:56.05    frame= 1395 fps= 25 q=28.0 size=    2048KiB time=00:00:55.72 bitrate= 301.1kbits/s speed=0.985x elapsed=0:00:56.55    frame= 1404 fps= 25 q=28.0 size=    2048KiB time=00:00:56.08 bitrate= 299.2kbits/s speed=0.983x elapsed=0:00:57.05    frame= 1416 fps= 25 q=28.0 size=    2048KiB time=00:00:56.56 bitrate= 296.6kbits/s speed=0.983x elapsed=0:00:57.55    frame= 1431 fps= 25 q=28.0 size=    2048KiB time=00:00:57.16 bitrate= 293.5kbits/s speed=0.985x elapsed=0:00:58.05    frame= 1445 fps= 25 q=28.0 size=    2048KiB time=00:00:57.72 bitrate= 290.7kbits/s speed=0.986x elapsed=0:00:58.55    frame= 1458 fps= 25 q=28.0 size=    2048KiB time=00:00:58.24 bitrate= 288.1kbits/s speed=0.986x elapsed=0:00:59.05    frame= 1470 fps= 25 q=28.0 size=    2048KiB time=00:00:58.72 bitrate= 285.7kbits/s speed=0.986x elapsed=0:00:59.55    frame= 1483 fps= 25 q=28.0 size=    2048KiB time=00:00:59.28 bitrate= 283.0kbits/s speed=0.987x elapsed=0:01:00.05    frame= 1495 fps= 25 q=28.0 size=    2048KiB time=00:00:59.72 bitrate= 280.9kbits/s speed=0.986x elapsed=0:01:00.55    frame= 1508 fps= 25 q=28.0 size=    2048KiB time=00:01:00.28 bitrate= 278.3kbits/s speed=0.987x elapsed=0:01:01.05    [out#0/matroska @ 0x563fcf07d500] Error writing trailer: Immediate exit requested
[out#0/matroska @ 0x563fcf07d500] Error closing file: Immediate exit requested
[out#0/matroska @ 0x563fcf07d500] video:2548KiB audio:0KiB subtitle:0KiB other streams:0KiB global headers:0KiB muxing overhead: unknown
frame= 1540 fps= 25 q=-1.0 Lsize=    2048KiB time=00:01:01.52 bitrate= 272.7kbits/s speed=0.996x elapsed=0:01:01.73    
[libx264 @ 0x563fcf07ef00] frame I:7     Avg QP:11.35  size:163697
[libx264 @ 0x563fcf07ef00] frame P:388   Avg QP:17.70  size:  2188
[libx264 @ 0x563fcf07ef00] frame B:1145  Avg QP:23.10  size:   536
[libx264 @ 0x563fcf07ef00] consecutive B-frames:  0.8%  0.1%  0.4% 98.7%
[libx264 @ 0x563fcf07ef00] mb I  I16..4: 83.6%  1.5% 14.9%
[libx264 @ 0x563fcf07ef00] mb P  I16..4:  0.5%  0.1%  0.0%  P16..4:  0.3%  0.2%  0.1%  0.0%  0.0%    skip:98.8%
[libx264 @ 0x563fcf07ef00] mb B  I16..4:  0.2%  0.0%  0.0%  B16..8:  0.3%  0.1%  0.0%  direct: 0.1%  skip:99.3%  L0:45.1% L1:49.5% BI: 5.4%
[libx264 @ 0x563fcf07ef00] 8x8 transform intra:2.9% inter:3.0%
[libx264 @ 0x563fcf07ef00] coded y,uvDC,uvAC intra: 13.4% 21.2% 17.7% inter: 0.1% 0.1% 0.0%
[libx264 @ 0x563fcf07ef00] i16 v,h,dc,p: 53% 44%  2%  0%
[libx264 @ 0x563fcf07ef00] i8 v,h,dc,ddl,ddr,vr,hd,vl,hu: 11% 15% 69%  0%  1%  0%  2%  0%  1%
[libx264 @ 0x563fcf07ef00] i4 v,h,dc,ddl,ddr,vr,hd,vl,hu: 26% 38% 19%  1%  2%  2%  6%  2%  4%
[libx264 @ 0x563fcf07ef00] i8c dc,h,v,p: 50% 44%  5%  1%
[libx264 @ 0x563fcf07ef00] Weighted P-Frames: Y:0.0% UV:0.0%
[libx264 @ 0x563fcf07ef00] kb/s:338.58
Exiting normally, received signal 2.
